<?xml version="1.0" standalone="no"?>
<!DOCTYPE svg PUBLIC "-//W3C//DTD SVG 20010904//EN"
 "http://www.w3.org/TR/2001/REC-SVG-20010904/DTD/svg10.dtd">
<svg version="1.0" xmlns="http://www.w3.org/2000/svg"
 width="512.000000pt" height="512.000000pt" viewBox="0 0 512.000000 512.000000"
 preserveAspectRatio="xMidYMid meet">
<metadata>
Created by potrace 1.11, written by Peter Selinger 2001-2013
</metadata>
<g transform="translate(0.000000,512.000000) scale(0.100000,-0.100000)"
fill="#000000" stroke="none">
<path d="M2527 4592 c-14 -16 -17 -47 -18 -211 -1 -205 1 -216 48 -225 12 -3
28 3 38 13 13 16 16 48 16 210 1 170 -1 195 -17 212 -22 24 -46 24 -67 1z"/>
<path d="M1955 4406 c-12 -18 -14 -30 -6 -43 5 -10 72 -79 148 -155 138 -136
138 -136 166 -122 25 13 32 29 28 61 -1 7 -63 74 -138 148 -146 144 -169 156
-198 111z"/>
<path d="M2966 4294 c-111 -111 -136 -142 -136 -165 0 -31 29 -54 58 -45 10 4
79 68 155 144 119 120 135 141 130 162 -3 14 -11 28 -17 32 -31 21 -58 3 -190
-128z"/>
<path d="M1484 4040 c-24 -10 -53 -75 -126 -290 -105 -311 -201 -668 -224
-835 -3 -27 -8 -61 -11 -75 -12 -66 -11 -449 2 -525 33 -202 85 -326 174 -415
31 -31 66 -63 78 -71 l23 -14 -21 -80 c-12 -44 -22 -87 -24 -95 -2 -8 -9 -37
-15 -65 -6 -27 -13 -57 -15 -65 -2 -8 -20 -80 -40 -160 -35 -140 -41 -161 -50
-205 -24 -106 -104 -417 -109 -422 -3 -3 -75 10 -158 30 -166 40 -188 43 -206
25 -20 -20 -14 -63 11 -76 17 -9 637 -167 736 -188 47 -10 89 44 63 82 -6 10
-90 36 -162 50 -46 9 -172 42 -176 46 -2 3 3 31 11 64 8 32 60 243 115 469 55
226 103 421 107 435 3 14 8 34 10 45 15 79 24 95 51 93 103 -6 270 94 383 232
158 190 284 448 374 761 19 66 37 130 39 142 2 12 21 101 41 197 20 96 40 200
45 230 24 142 40 252 46 325 3 44 8 83 10 86 2 4 -4 17 -14 29 -13 16 -50 30
-137 52 -66 16 -126 30 -132 31 -7 0 -13 4 -13 9 0 5 -4 7 -8 4 -9 -5 -32 0
-416 95 -132 32 -240 59 -240 58 -1 0 -10 -4 -22 -9z m407 -190 c178 -44 356
-88 394 -98 l70 -17 -2 -40 c-4 -62 -35 -269 -42 -277 -3 -3 -53 5 -111 18
-58 14 -123 29 -145 34 -22 5 -94 22 -160 38 -66 16 -174 42 -240 57 -66 15
-133 30 -150 35 -16 4 -42 11 -57 14 l-27 6 34 98 c61 180 75 212 94 212 10 0
164 -36 342 -80z m-369 -359 c68 -17 161 -39 208 -50 47 -11 184 -43 305 -72
121 -28 229 -54 240 -56 20 -4 20 -6 -8 -141 -15 -75 -29 -146 -32 -157 -3
-11 -7 -33 -11 -50 -3 -16 -21 -85 -40 -153 -140 -504 -425 -901 -653 -908
-71 -3 -103 10 -155 60 -161 157 -211 618 -115 1066 27 128 25 119 40 170 7
25 14 52 15 60 2 8 10 40 19 70 45 148 58 190 61 190 2 0 59 -13 126 -29z"/>
<path d="M1943 3100 c-15 -6 -25 -23 -33 -52 -6 -24 -18 -72 -27 -108 -19 -77
-81 -236 -125 -323 -37 -74 -125 -209 -168 -256 -37 -41 -39 -75 -5 -97 23
-15 27 -15 50 0 34 22 133 156 188 254 60 108 125 261 151 360 12 45 24 81 26
78 3 -2 5 25 5 61 0 54 -3 68 -20 78 -13 9 -28 10 -42 5z"/>
<path d="M3510 4024 c-52 -13 -255 -62 -450 -110 -195 -48 -366 -93 -379 -101
-23 -15 -24 -17 -17 -117 3 -56 9 -113 11 -126 8 -38 13 -70 20 -120 12 -80
65 -351 101 -510 129 -567 403 -1012 689 -1119 29 -11 70 -21 90 -23 20 -1 40
-7 44 -13 7 -9 23 -65 35 -130 3 -11 28 -112 56 -225 28 -113 55 -225 61 -250
5 -25 11 -49 13 -55 17 -54 105 -429 101 -433 -2 -2 -75 -22 -162 -44 -87 -22
-163 -44 -170 -50 -19 -15 -16 -52 5 -70 22 -20 26 -20 297 47 333 81 437 106
460 111 34 6 58 39 51 68 -10 42 -43 42 -207 2 -83 -21 -155 -36 -161 -34 -9
3 -43 121 -63 218 -2 14 -52 216 -110 450 l-105 425 23 15 c49 33 114 101 145
153 34 57 76 166 87 226 3 19 7 37 9 40 19 31 29 454 14 571 -16 121 -27 188
-35 225 -2 11 -6 31 -9 45 -18 89 -138 508 -191 660 -66 193 -105 281 -130
291 -13 5 -25 9 -26 8 -1 0 -45 -11 -97 -25z m100 -151 c12 -32 37 -102 55
-155 l34 -98 -39 -10 c-21 -6 -42 -10 -47 -9 -4 1 -15 -1 -23 -4 -38 -17 -775
-186 -782 -179 -3 4 -10 34 -13 67 -4 33 -9 62 -10 66 -3 4 -13 95 -19 167 -1
10 10 18 29 23 44 10 511 127 640 159 155 40 150 41 175 -27z m141 -427 c11
-39 26 -91 34 -116 146 -469 163 -980 42 -1239 -77 -166 -182 -223 -315 -173
-214 81 -453 452 -575 893 -53 187 -116 484 -106 494 5 4 409 103 489 119 44
9 71 15 88 20 9 3 28 7 42 10 14 3 77 18 140 34 63 15 121 28 128 28 7 1 21
-30 33 -70z"/>
<path d="M3530 3160 c-15 -15 -20 -29 -16 -43 71 -247 90 -519 52 -731 -9 -49
-14 -97 -11 -107 12 -38 78 -35 91 4 30 87 43 219 39 387 -3 177 -6 197 -37
335 -23 99 -46 165 -58 165 -5 0 -15 3 -23 6 -9 3 -25 -4 -37 -16z"/>
<path d="M3910 321 c0 -6 4 -13 10 -16 6 -3 7 1 4 9 -7 18 -14 21 -14 7z"/>
</g>
</svg>
